<?xml version="1.0" standalone="no"?><!DOCTYPE svg PUBLIC "-//W3C//DTD SVG 1.1//EN" "http://www.w3.org/Graphics/SVG/1.1/DTD/svg11.dtd"><svg t="1723647269234" class="icon" viewBox="0 0 1024 1024" version="1.1" xmlns="http://www.w3.org/2000/svg" p-id="13787" xmlns:xlink="http://www.w3.org/1999/xlink" width="200" height="200"><path d="M1011.365376 632.6784L777.278976 395.7248a329.216 329.216 0 0 0-235.008-98.5088 329.3184 329.3184 0 0 0-235.008 98.5088l-133.7856 135.3728L348.734976 708.608c33.1264 33.536 47.0016 81.92 47.0016 129.2288V1024C169.330176 973.056 4.005376 770.304 0.114176 526.6432-4.391424 241.4592 222.936576 4.096 504.741376 0.0512L512.062976 0c282.7776 0 512 231.9872 512 518.144 0 39.424-4.5056 77.6704-12.6976 114.5344zM512.062976 46.5408L505.406976 46.592C382.834176 48.3328 267.582976 98.5088 180.798976 187.904a471.6544 471.6544 0 0 0-134.144 338.0224c3.2256 199.168 124.928 370.688 302.592 435.968v-124.0576c0-23.3472-4.352-66.9696-33.536-96.4608l-175.4112-177.5616-32.3072-32.7168 32.3072-32.6656L274.085376 363.008a374.4256 374.4256 0 0 1 268.1344-112.384c101.3248 0 196.5056 39.936 268.1344 112.384l166.9632 168.96c0.1536-4.608 0.2048-9.216 0.2048-13.824C977.470976 258.0992 768.728576 46.592 512.062976 46.592z m0 410.112c33.536 0 60.7744 27.5456 60.7744 61.4912 0 33.9968-27.2384 61.4912-60.7744 61.4912a61.1328 61.1328 0 0 1-60.7232-61.44c0-33.9968 27.1872-61.4912 60.7232-61.4912z" fill="#FF8400" p-id="13788"></path></svg>